<svg aria-hidden="true" style="position: absolute; width: 0; height: 0; overflow: hidden;" version="1.1" xmlns="http://www.w3.org/2000/svg" xmlns:xlink="http://www.w3.org/1999/xlink">
<defs>
<symbol id="icon-apartment" viewBox="0 0 24 24">
<path d="M18.984 15v-2.016h-1.969v2.016h1.969zM18.984 18.984v-1.969h-1.969v1.969h1.969zM15 6.984v-1.969h-2.016v1.969h2.016zM15 11.016v-2.016h-2.016v2.016h2.016zM15 15v-2.016h-2.016v2.016h2.016zM11.016 6.984v-1.969h-2.016v1.969h2.016zM11.016 11.016v-2.016h-2.016v2.016h2.016zM11.016 15v-2.016h-2.016v2.016h2.016zM6.984 11.016v-2.016h-1.969v2.016h1.969zM6.984 15v-2.016h-1.969v2.016h1.969zM6.984 18.984v-1.969h-1.969v1.969h1.969zM17.016 11.016h3.984v9.984h-8.016v-3.984h-1.969v3.984h-8.016v-14.016h3.984v-3.984h10.031v8.016z"></path>
</symbol>
<symbol id="icon-house" viewBox="0 0 24 24">
<path d="M9.984 9.984h4.031q0-0.797-0.609-1.383t-1.406-0.586-1.406 0.586-0.609 1.383zM18.984 9.281l3 2.719h-3v8.016h-4.969v-6h-4.031v6h-4.969v-8.016h-3l9.984-9 3.984 3.609v-2.625h3v5.297z"></path>
</symbol>
<symbol id="icon-name" viewBox="0 0 24 32">
<path d="M12 16c-6.625 0-12 5.375-12 12 0 2.211 1.789 4 4 4h16c2.211 0 4-1.789 4-4 0-6.625-5.375-12-12-12zM6 6c0-3.314 2.686-6 6-6s6 2.686 6 6c0 3.314-2.686 6-6 6s-6-2.686-6-6z"></path>
</symbol>
<symbol id="icon-address" viewBox="0 0 20 20">
<path d="M19.799 5.165l-2.375-1.83c-0.135-0.093-0.324-0.176-0.521-0.237-0.198-0.061-0.403-0.098-0.567-0.098h-6.836l0.801 5h6.035c0.164 0 0.369-0.037 0.566-0.098s0.387-0.145 0.521-0.236l2.375-1.832c0.135-0.091 0.202-0.212 0.202-0.334s-0.067-0.243-0.201-0.335zM8.5 1h-1c-0.276 0-0.5 0.224-0.5 0.5v3.5h-3.336c-0.166 0-0.37 0.037-0.567 0.099-0.198 0.060-0.387 0.143-0.521 0.236l-2.375 1.83c-0.135 0.091-0.201 0.213-0.201 0.335s0.066 0.242 0.201 0.335l2.375 1.832c0.134 0.091 0.323 0.175 0.521 0.235s0.401 0.098 0.567 0.098h3.336v8.5c0 0.276 0.224 0.5 0.5 0.5h1c0.276 0 0.5-0.224 0.5-0.5v-17c0-0.276-0.224-0.5-0.5-0.5z"></path>
</symbol>
<symbol id="icon-surname" viewBox="0 0 32 32">
<path d="M28 25h-3v-1c0.553 0 1-0.448 1-1 0-0.553-0.447-1-1-1h-2c-0.553 0-1 0.447-1 1 0 0.552 0.447 1 1 1v1h-13v-1c0.553 0 1-0.448 1-1 0-0.553-0.447-1-1-1h-2c-0.553 0-1 0.447-1 1 0 0.552 0.447 1 1 1v1h-4c-1.104 0-2-0.896-2-2v-14c0-1.104 0.896-2 2-2h24c1.104 0 2 0.896 2 2v14c0 1.104-0.896 2-2 2zM10 9.812c-1.208 0-2.188 1.287-2.188 2.875s0.98 2.875 2.188 2.875 2.188-1.287 2.188-2.875-0.98-2.875-2.188-2.875zM13.49 16.688c-0.539-0.359-2.091-0.598-2.091-0.598s-1.006 1.075-1.433 1.075c-0.428 0-1.434-1.075-1.434-1.075s-1.552 0.238-2.090 0.598c-0.539 0.358-0.777 2.261-0.777 2.261h8.615c0.001-0.001-0.157-1.84-0.79-2.261zM26 11h-9v1h9v-1zM26 13h-9v1h9v-1zM26 15h-9v1h9v-1zM26 17h-9v1h9v-1z"></path>
</symbol>
<symbol id="icon-phone" viewBox="0 0 32 32">
<path d="M21.999 4h-12c-1.104 0-1.999 0.896-1.999 2v20c0 1.104 0.895 2 1.999 2h12c1.105 0 2.001-0.896 2.001-2v-20c0-1.104-0.896-2-2.001-2zM13 5h5l0.062 1h-5.062v-1zM15.979 26.5c-0.552 0-1-0.447-1-1s0.448-1 1-1c0.553 0 1 0.447 1 1s-0.448 1-1 1zM21.999 23h-12l0.021-16h11.979v16z"></path>
</symbol>
<symbol id="icon-date" viewBox="0 0 34 32">
<path d="M34 30.5v-19c0-0.276-0.224-0.5-0.5-0.5s-0.5 0.224-0.5 0.5v19c0 0.276-0.224 0.5-0.5 0.5h-31c-0.276 0-0.5-0.224-0.5-0.5v-19c0-0.276-0.224-0.5-0.5-0.5s-0.5 0.224-0.5 0.5v19c0 0.827 0.673 1.5 1.5 1.5h31c0.827 0 1.5-0.673 1.5-1.5zM4.5 23c-0.276 0-0.5 0.224-0.5 0.5s0.224 0.5 0.5 0.5h1.5v3.5c0 0.276 0.224 0.5 0.5 0.5s0.5-0.224 0.5-0.5v-3.5h6v3.5c0 0.276 0.224 0.5 0.5 0.5s0.5-0.224 0.5-0.5v-3.5h6v3.5c0 0.276 0.224 0.5 0.5 0.5s0.5-0.224 0.5-0.5v-3.5h6v3.5c0 0.276 0.224 0.5 0.5 0.5s0.5-0.224 0.5-0.5v-3.5h1.5c0.276 0 0.5-0.224 0.5-0.5s-0.224-0.5-0.5-0.5h-1.5v-5h1.5c0.276 0 0.5-0.224 0.5-0.5s-0.224-0.5-0.5-0.5h-1.5v-4.5c0-0.276-0.224-0.5-0.5-0.5s-0.5 0.224-0.5 0.5v4.5h-6v-4.5c0-0.276-0.224-0.5-0.5-0.5s-0.5 0.224-0.5 0.5v4.5h-6v-4.5c0-0.276-0.224-0.5-0.5-0.5s-0.5 0.224-0.5 0.5v4.5h-6v-4.5c0-0.276-0.224-0.5-0.5-0.5s-0.5 0.224-0.5 0.5v4.5h-1.5c-0.276 0-0.5 0.224-0.5 0.5s0.224 0.5 0.5 0.5h1.5v5h-1.5zM27 18v5h-6v-5h6zM20 18v5h-6v-5h6zM7 18h6v5h-6v-5zM28.5 3h4.25c0.087 0 0.25 0 0.25 0.5v4.5h-32v-4.5c0-0.276 0.224-0.5 0.5-0.5h4c0.276 0 0.5-0.224 0.5-0.5s-0.224-0.5-0.5-0.5h-4c-0.827 0-1.5 0.673-1.5 1.5v5c0 0.276 0.224 0.5 0.5 0.5h33c0.276 0 0.5-0.224 0.5-0.5v-5c0-1.106-0.646-1.5-1.25-1.5h-4.25c-0.276 0-0.5 0.224-0.5 0.5s0.224 0.5 0.5 0.5zM22.5 3c0.276 0 0.5-0.224 0.5-0.5s-0.224-0.5-0.5-0.5h-11c-0.276 0-0.5 0.224-0.5 0.5s0.224 0.5 0.5 0.5h11zM9 4.5v-4c0-0.276-0.224-0.5-0.5-0.5s-0.5 0.224-0.5 0.5v4c0 0.276 0.224 0.5 0.5 0.5s0.5-0.224 0.5-0.5zM25.5 5c0.276 0 0.5-0.224 0.5-0.5v-4c0-0.276-0.224-0.5-0.5-0.5s-0.5 0.224-0.5 0.5v4c0 0.276 0.224 0.5 0.5 0.5z"></path>
</symbol>
<symbol id="icon-close" viewBox="0 0 24 24">
<path d="M18.984 6.422l-5.578 5.578 5.578 5.578-1.406 1.406-5.578-5.578-5.578 5.578-1.406-1.406 5.578-5.578-5.578-5.578 1.406-1.406 5.578 5.578 5.578-5.578z"></path>
</symbol>
<symbol id="icon-cart" viewBox="0 0 43 28">
<path d="M23.812 24.391c0 1.422-1.141 2.562-2.562 2.562s-2.578-1.141-2.578-2.562 1.156-2.578 2.578-2.578 2.562 1.156 2.562 2.578zM12.109 24.391c0 1.422-1.156 2.562-2.578 2.562s-2.562-1.141-2.562-2.562 1.141-2.578 2.562-2.578 2.578 1.156 2.578 2.578zM0 1.047c4.609 4.859 8.937 5.578 25.937 5.578s9.531 3.781-0.969 13.156c3.328-5.781 14.766-10.906-3.984-10.625-17.984 0.266-19.047-5.203-20.984-8.109z"></path>
</symbol>
</defs>
</svg>
